<svg width="655" height="149" viewBox="0 0 655 149" fill="none" xmlns="http://www.w3.org/2000/svg">
<path d="M211.14 129.474C191.408 129.474 175.318 113.384 175.318 93.6515C175.318 73.9188 191.408 57.9808 211.14 57.9808C224.498 57.9808 236.034 65.2667 241.954 77.7135C242.713 79.2314 243.016 80.9011 243.016 82.5708C243.016 84.0887 242.865 85.4548 242.257 86.821C241.195 89.705 238.918 92.1336 236.034 93.1962L200.06 107.768C203.096 110.197 207.042 111.563 211.14 111.563C216.908 111.563 222.373 108.831 225.712 104.125L240.132 114.447C233.454 123.858 222.525 129.474 211.14 129.474ZM193.381 91.3747L221.766 79.8386C218.882 77.1064 215.239 75.7403 211.14 75.7403C202.033 75.7403 194.443 82.5708 193.381 91.3747ZM268.303 127.804H250.543V24.5869H268.303V127.804ZM313.86 129.474C294.127 129.474 278.037 113.384 278.037 93.6515C278.037 73.9188 294.127 57.9808 313.86 57.9808C327.217 57.9808 338.753 65.2667 344.673 77.7135C345.432 79.2314 345.736 80.9011 345.736 82.5708C345.736 84.0887 345.584 85.4548 344.977 86.821C343.914 89.705 341.638 92.1336 338.753 93.1962L302.779 107.768C305.815 110.197 309.762 111.563 313.86 111.563C319.628 111.563 325.092 108.831 328.432 104.125L342.852 114.447C336.173 123.858 325.244 129.474 313.86 129.474ZM296.1 91.3747L324.485 79.8386C321.601 77.1064 317.958 75.7403 313.86 75.7403C304.752 75.7403 297.163 82.5708 296.1 91.3747ZM381.861 128.108L344.369 59.4987H364.557L381.861 90.9193L399.013 59.4987H419.201L381.861 128.108ZM451.266 129.474C431.533 129.474 415.443 113.384 415.443 93.6515C415.443 73.9188 431.533 57.9808 451.266 57.9808C457.793 57.9808 463.864 59.6505 469.177 62.8381L474.186 59.4987H486.937V127.956H469.177V124.617C463.864 127.653 457.793 129.474 451.266 129.474ZM451.266 111.563C461.132 111.563 469.177 103.518 469.177 93.6515C469.177 83.7852 461.132 75.7403 451.266 75.7403C441.399 75.7403 433.203 83.7852 433.203 93.6515C433.203 103.518 441.399 111.563 451.266 111.563ZM572.474 127.804H554.715V93.6515C554.715 84.6959 549.25 75.7403 538.625 75.7403C530.883 75.7403 521.472 83.9369 521.472 93.6515V127.804H503.713V59.4987H516.463L521.472 62.9899C526.785 59.8023 532.705 57.9808 538.625 57.9808C557.902 57.9808 572.474 73.6152 572.474 93.6515V127.804ZM615.947 129.474C596.214 129.474 580.124 113.384 580.124 93.6515C580.124 73.9188 596.214 57.9808 615.947 57.9808C622.474 57.9808 628.545 59.6505 633.858 62.8381L638.867 59.4987H651.617V127.956H633.858V124.617C628.545 127.653 622.474 129.474 615.947 129.474ZM615.947 111.563C625.813 111.563 633.858 103.518 633.858 93.6515C633.858 83.7852 625.813 75.7403 615.947 75.7403C606.08 75.7403 597.883 83.7852 597.883 93.6515C597.883 103.518 606.08 111.563 615.947 111.563Z" fill="#3A96AF"/>
<path d="M12.629 62.8562C21.3873 65.2393 30.0849 67.7438 37.9173 72.7073C32.134 76.0164 25.9713 77.1852 19.5202 75.6066C11.0048 73.527 4.53853 68.5787 0 60.807C0.774131 60.3668 1.27504 60.048 1.82149 59.79C9.28958 56.2381 16.955 56.1318 24.7874 58.4087C30.3733 60.0328 35.3065 62.8713 39.845 66.4384C43.9889 69.7019 48.072 73.0413 52.2311 76.3048C55.3428 78.7334 58.667 80.7978 62.477 82.0121C67.3646 83.5604 72.0094 82.8166 76.4872 80.5549C80.1757 78.7031 83.3937 76.1682 86.5509 73.5574C91.5296 69.4438 96.4021 65.1785 102.079 62.0365C108.394 58.5301 115.118 56.6479 122.389 56.9515C126.533 57.1185 130.479 58.1203 134.198 60.0025C134.532 60.1695 134.835 60.4275 135.367 60.807C131.572 67.7438 125.789 72.1761 118.533 74.7413C111.323 77.2914 104.341 76.4869 97.2521 72.7529C101.487 69.9903 105.768 68.2447 110.17 66.8331C114.526 65.4366 118.958 64.2526 123.375 62.7044C121.857 62.7044 120.324 62.5981 118.806 62.7195C110.291 63.4178 102.17 65.5277 95.1119 70.5368C88.8278 74.9842 83.3785 80.312 79.7052 87.2185C76.7301 92.8044 75.4702 98.6483 77.0944 104.932C77.8685 107.938 79.3409 110.579 81.3141 112.901C82.6954 114.51 83.4696 116.256 83.6821 118.336C83.9401 120.855 83.9856 123.36 83.2419 126.077C82.5285 125.728 81.8758 125.47 81.299 125.09C76.2747 121.842 72.0549 117.804 69.095 112.552C68.0628 110.716 67.2128 110.746 66.1655 112.628C63.1296 118.138 58.6822 122.252 53.3695 125.485C53.0356 125.682 52.6865 125.849 51.9882 126.213C51.8061 124.498 51.4266 122.965 51.548 121.462C51.6998 119.413 52.14 117.364 52.6106 115.36C52.7775 114.647 53.3088 113.964 53.8097 113.372C60.0635 105.858 61.1716 96.4626 56.2384 87.9471C48.7855 75.0753 37.978 66.5598 23.0873 63.7517C19.6417 63.099 16.1657 62.6436 12.629 62.8865V62.8562Z" fill="#3A96AF"/>
<path d="M67.8191 0.0151707C83.2714 14.3594 85.442 38.5548 69.6406 53.9918C69.8228 42.8353 69.3219 32.0581 67.8191 21.3417C67.6673 21.3417 67.5004 21.3417 67.3486 21.3266C67.0146 26.7758 66.6048 32.2251 66.3619 37.6744C66.1191 43.0781 66.028 48.4971 65.6637 53.9615C58.8179 46.9943 55.2812 38.5851 54.9321 28.8554C54.5678 18.9131 61.0644 4.44746 67.8343 0L67.8191 0.0151707Z" fill="#D97E59"/>
<path d="M80.8908 67.5167C85.7632 60.762 91.1063 54.2958 94.476 46.5848C94.3849 46.5089 94.309 46.433 94.218 46.3419C92.8518 47.875 91.4554 49.3778 90.1044 50.926C88.708 52.535 87.3419 54.1743 85.9757 55.8137C84.6552 57.4075 83.3498 59.0316 82.0595 60.6558C80.739 62.3103 79.4336 63.98 77.9157 65.5738C77.1719 63.4487 76.929 61.3388 77.1719 59.1682C78.2344 49.6813 83.3042 42.7445 91.0304 37.5533C93.5653 35.8532 96.2975 34.563 99.2574 33.8192C101.352 33.288 101.595 33.4094 102.005 35.4737C103.416 42.4713 102.278 49.0893 98.8324 55.2976C95.8269 60.7317 91.5009 64.7693 85.6266 66.9551C84.1998 67.4864 82.6363 67.6837 81.1336 68.0328L80.8756 67.5167H80.8908Z" fill="#D97E59"/>
<path d="M57.4676 65.5738C51.8058 58.7887 46.311 52.201 40.8314 45.6285C40.7251 45.7044 40.634 45.7803 40.5278 45.8562C43.8975 53.9466 49.195 60.8075 54.7809 67.4711C54.6898 67.6229 54.6139 67.7595 54.5229 67.9113C53.3996 67.7595 52.246 67.7444 51.1531 67.456C45.8708 66.0595 41.8939 62.7505 38.6608 58.5155C33.3329 51.5332 31.8606 43.64 33.5454 35.1094C33.8946 33.3486 34.1222 33.212 35.8223 33.7281C47.2673 37.189 54.7202 44.5811 57.6498 56.269C58.4087 59.2896 58.4239 62.3558 57.4676 65.5738Z" fill="#D97E59"/>
<path d="M85.8687 85.9434C93.3975 85.5943 100.441 86.2773 107.484 87.0818C106.391 86.08 104.509 85.2907 101.002 84.5469C98.6495 84.046 96.2663 83.6362 93.8832 83.3326C91.5001 83.029 89.1018 82.9228 86.2937 82.6951C86.9768 82.1486 87.4018 81.6932 87.933 81.4048C95.2797 77.4279 102.55 77.686 109.669 81.9361C112.432 83.5906 114.724 85.8371 116.561 88.5086C117.487 89.8596 117.441 90.148 116.075 90.8462C107.408 95.2633 95.477 94.9749 87.2803 87.5827C86.8553 87.1881 86.5062 86.7175 85.8535 85.9586L85.8687 85.9434Z" fill="#3A96AF"/>
<path d="M27.6716 86.9605C34.7451 86.5811 41.7881 85.5641 48.9678 85.9891C45.9168 93.6393 25.7894 96.2349 17.957 89.9508C20.9473 84.5319 25.5466 81.1773 31.4208 79.4621C37.6746 77.6254 43.4426 78.6424 48.7098 82.5738C41.4997 83.1506 34.3352 83.7274 27.6716 86.9757V86.9605Z" fill="#3A96AF"/>
<path d="M52.0951 110.443C51.3058 111.217 50.6228 112.113 49.7424 112.765C41.8341 118.534 32.9999 120.719 23.3308 119.171C18.8682 118.458 15.5743 116.059 13.8288 111.764C13.6314 111.263 13.4796 110.747 13.252 110.033H51.8826L52.0951 110.443Z" fill="#D97E59"/>
<path d="M83.4849 110.018H122.04C121.235 113.691 119.414 116.332 116.105 117.835C113.023 119.231 109.745 119.58 106.42 119.52C99.772 119.414 93.5789 117.729 87.9171 114.192C86.2323 113.129 84.6233 111.945 83.5 110.018H83.4849Z" fill="#D97E59"/>
<path d="M17.4854 120.492C28.3535 124.56 38.5994 122.966 48.5265 117.562C48.6328 117.881 48.739 118.033 48.7086 118.169C48.2988 121.038 48.3899 123.876 48.9667 126.715C49.1185 127.444 48.9212 127.884 48.2381 128.187C41.362 131.102 34.3341 132.589 26.9419 130.464C21.8721 129.007 19.3676 125.06 17.5005 120.507L17.4854 120.492Z" fill="#3A96AF"/>
<path d="M87.0823 117.562C91.803 120.37 96.8425 121.964 102.201 122.48C107.483 122.996 112.735 122.753 117.987 120.522C117.774 121.159 117.683 121.554 117.501 121.918C114.465 128.172 109.502 131.36 102.504 131.375C97.3889 131.375 92.5013 130.358 87.7806 128.415C86.6877 127.96 86.3082 127.444 86.4752 126.169C86.8243 123.406 86.885 120.613 87.0823 117.562Z" fill="#3A96AF"/>
<path d="M105.646 51.5636C105.858 49.818 105.964 48.0573 106.313 46.342C107.816 38.9954 114.601 32.1496 121.553 30.8594C123.284 30.5407 123.314 30.571 123.587 32.3166C124.877 40.6802 119.352 50.3645 111.474 53.4306C110.457 53.8253 109.364 53.9923 108.18 54.0833C111.383 48.9073 115.163 44.2018 117.622 38.6614C113.129 42.4258 109.789 47.1921 106.207 51.7154C106.025 51.6699 105.828 51.6092 105.646 51.5636Z" fill="#D97E59"/>
<path d="M12.2507 30.7524C20.5688 31.0863 30.1468 40.6491 29.4182 51.7146C25.4413 47.085 22.1474 42.1215 17.4875 38.3571C20.159 43.9126 23.9689 48.7699 27.4753 54.0067C18.6411 53.5361 9.18452 41.8331 12.2355 30.7524H12.2507Z" fill="#D97E59"/>
<path d="M87.8569 33.1661C91.1204 28.2632 94.7331 23.7247 97.2376 18.4728C92.775 22.1157 89.5266 26.8061 85.9899 31.4053C83.8345 24.1649 92.1526 12.0065 101.366 12.0217C105.161 19.0799 96.4331 32.9839 87.8569 33.1661Z" fill="#D97E59"/>
<path d="M38.5704 18.8679C41.0445 23.8467 44.4598 28.2638 47.3438 32.9996C47.2528 33.1211 47.1465 33.2425 47.0554 33.3639C46.0233 33.0148 44.9304 32.7719 43.9589 32.3014C37.7659 29.3567 34.4872 24.2717 33.5764 17.5929C33.3791 16.1661 33.4854 14.6785 33.5764 13.2365C33.6827 11.8401 33.9104 11.7034 35.2917 12.007C42.2285 13.5097 46.5697 17.8965 48.9528 24.4083C49.7118 26.5182 49.9698 28.7191 49.56 31.3299C47.7233 28.9165 46.1447 26.7003 44.4143 24.6056C42.6839 22.5261 40.7713 20.568 38.9498 18.5644C38.8284 18.6706 38.6918 18.7617 38.5704 18.8679Z" fill="#D97E59"/>
<path d="M67.6981 65.3003C71.842 65.3003 75.2725 68.6701 75.318 72.7229C75.3635 76.8061 71.7965 80.3124 67.6526 80.2821C63.3569 80.2517 60.0782 76.9427 60.1086 72.6774C60.1541 68.5183 63.4784 65.2852 67.6981 65.3003Z" fill="#3A96AF"/>
<path d="M26.0918 133.288C34.4555 135.625 42.2271 133.955 49.8166 130.904C51.3497 133.591 52.7766 136.096 54.3855 138.904C51.9265 139.648 49.6193 140.498 47.2362 141.014C45.2326 141.454 43.1379 141.651 41.0735 141.682C34.8805 141.803 30.3875 138.555 26.5168 134.138C26.3802 133.986 26.3195 133.758 26.0918 133.272V133.288Z" fill="#3A96AF"/>
<path d="M109.092 133.515C105.555 137.704 101.76 141.332 95.9161 141.575C91.4838 141.757 87.2033 141.12 83.0746 139.495C82.513 139.268 81.9666 138.994 81.3442 138.706C82.6952 136.08 84.0006 133.576 85.1845 131.268C89.2373 132.24 93.1535 133.348 97.1456 134.107C101.123 134.851 105.13 134.547 109.107 133.515H109.092Z" fill="#3A96AF"/>
<path d="M59.4419 139.769C62.3411 137.416 64.9519 135.321 67.6083 133.166C70.2646 135.245 73.012 137.401 76.1237 139.844C75.2433 140.573 74.4388 141.256 73.6192 141.909C73.0424 142.364 72.4656 142.804 71.8432 143.184C67.0315 146.129 68.2002 146.083 63.4796 143.078C62.0376 142.167 60.8081 140.907 59.4268 139.769H59.4419Z" fill="#3A96AF"/>
<path d="M73.9212 123.345C76.4864 125.181 79.1428 127.048 81.7384 128.976C82.0268 129.188 82.2697 129.947 82.1179 130.236C81.0402 132.315 79.9017 134.349 78.6571 136.338C78.4901 136.611 77.6097 136.717 77.2454 136.55C74.6043 135.245 72.3881 133.363 70.3845 131.222C69.9595 130.782 69.838 130.342 70.2175 129.735C71.4925 127.64 72.6917 125.515 73.9364 123.36L73.9212 123.345Z" fill="#3A96AF"/>
<path d="M71.9639 147.085C74.2559 145.278 76.4265 143.518 78.673 141.848C79.0221 141.59 79.7204 141.59 80.1909 141.727C82.4981 142.41 84.7295 143.336 87.067 143.867C89.3894 144.398 91.7877 144.58 94.0949 144.899C88.2206 149.711 77.8382 150.09 71.9639 147.07V147.085Z" fill="#D97E59"/>
<path d="M61.4757 123.573C62.8114 125.865 64.1624 128.172 65.6044 130.631C63.4945 133.029 61.0962 135.17 58.1363 136.612C57.8024 136.779 56.9523 136.551 56.7398 136.232C55.5103 134.38 54.3719 132.453 53.2486 130.525C52.9147 129.948 52.9602 129.402 53.6433 128.946C56.2389 127.201 58.8193 125.409 61.4757 123.573Z" fill="#3A96AF"/>
<path d="M63.343 147.252C55.6017 149.984 48.3765 149.453 41.1968 145.082C43.1701 144.793 44.8853 144.687 46.5094 144.292C49.3935 143.579 52.2168 142.698 55.0704 141.848C55.7838 141.636 56.391 141.332 57.0892 141.939C59.0625 143.67 61.0813 145.34 63.343 147.237V147.252Z" fill="#D97E59"/>
<path d="M67.6846 115.998C68.8382 117.516 69.9007 118.867 70.9025 120.263C71.0999 120.552 71.2365 121.038 71.1302 121.341C70.3409 123.724 69.4454 126.047 67.6542 128.202C66.3488 126.684 65.681 124.984 64.8309 123.375C63.9505 121.721 64.0568 120.37 65.3926 119.019C66.2274 118.169 66.8649 117.106 67.6846 115.998Z" fill="#3A96AF"/>
</svg>
