<svg width="40" height="44" viewBox="0 0 40 44" fill="none" xmlns="http://www.w3.org/2000/svg">
<path d="M3.71534 18.4917C6.29197 19.1928 8.85073 19.9296 11.155 21.3899C9.45358 22.3634 7.64056 22.7072 5.7427 22.2428C3.23753 21.631 1.3352 20.1752 0 17.8889C0.227743 17.7594 0.375107 17.6656 0.535867 17.5897C2.73292 16.5447 4.98803 16.5135 7.29225 17.1833C8.93558 17.6611 10.3869 18.4962 11.7221 19.5456C12.9412 20.5057 14.1424 21.4881 15.366 22.4482C16.2814 23.1627 17.2594 23.77 18.3802 24.1273C19.8181 24.5827 21.1846 24.3639 22.5019 23.6986C23.5871 23.1538 24.5338 22.408 25.4626 21.6399C26.9273 20.4298 28.3607 19.175 30.0309 18.2506C31.8885 17.219 33.8668 16.6653 36.0058 16.7546C37.2249 16.8037 38.3859 17.0985 39.48 17.6522C39.5782 17.7013 39.6675 17.7772 39.8238 17.8889C38.7074 19.9296 37.0061 21.2336 34.8715 21.9883C32.7504 22.7385 30.6962 22.5018 28.6108 21.4033C29.8567 20.5905 31.116 20.077 32.411 19.6617C33.6926 19.2509 34.9966 18.9026 36.296 18.4471C35.8495 18.4471 35.3985 18.4158 34.9519 18.4515C32.4467 18.657 30.0577 19.2777 27.9812 20.7513C26.1324 22.0597 24.5293 23.6271 23.4486 25.6589C22.5734 27.3023 22.2027 29.0215 22.6806 30.8702C22.9083 31.7544 23.3415 32.5314 23.922 33.2147C24.3283 33.688 24.5561 34.2016 24.6186 34.8133C24.6945 35.5546 24.7079 36.2914 24.4891 37.0908C24.2792 36.9881 24.0872 36.9121 23.9175 36.8005C22.4394 35.8449 21.198 34.657 20.3272 33.112C20.0235 32.5716 19.7735 32.5806 19.4654 33.1343C18.5722 34.7553 17.2638 35.9654 15.7009 36.9166C15.6027 36.9747 15.4999 37.0238 15.2945 37.131C15.2409 36.6263 15.1293 36.1753 15.165 35.7332C15.2097 35.1304 15.3392 34.5275 15.4776 33.9381C15.5267 33.7282 15.683 33.5273 15.8304 33.3531C17.6702 31.1427 17.9962 28.3785 16.5449 25.8733C14.3523 22.0865 11.1728 19.5813 6.79211 18.7552C5.77843 18.5632 4.75582 18.4292 3.71534 18.5007V18.4917Z" fill="#3A96AF"/>
<path d="M19.9523 0.0044631C24.4982 4.22441 25.1368 11.3425 20.4882 15.884C20.5418 12.6018 20.3944 9.43125 19.9523 6.27857C19.9076 6.27857 19.8585 6.27857 19.8139 6.27411C19.7156 7.87724 19.5951 9.48037 19.5236 11.0835C19.4522 12.6732 19.4254 14.2675 19.3182 15.8751C17.3042 13.8254 16.2638 11.3514 16.161 8.48902C16.0539 5.56408 17.9651 1.30841 19.9568 0L19.9523 0.0044631Z" fill="#D97E59"/>
<path d="M23.7971 19.8628C25.2305 17.8757 26.8024 15.9733 27.7937 13.7048C27.7669 13.6825 27.7446 13.6602 27.7178 13.6334C27.3159 14.0844 26.9051 14.5265 26.5076 14.982C26.0968 15.4553 25.6949 15.9376 25.293 16.4199C24.9045 16.8888 24.5205 17.3666 24.1409 17.8444C23.7524 18.3311 23.3684 18.8224 22.9218 19.2912C22.703 18.6661 22.6315 18.0453 22.703 17.4068C23.0156 14.6158 24.5071 12.575 26.78 11.0478C27.5258 10.5477 28.3296 10.1681 29.2004 9.94929C29.8166 9.793 29.8881 9.82872 30.0086 10.436C30.4239 12.4947 30.089 14.4416 29.0753 16.2681C28.1912 17.8667 26.9185 19.0546 25.1903 19.6976C24.7705 19.8539 24.3106 19.9119 23.8685 20.0147L23.7926 19.8628H23.7971Z" fill="#D97E59"/>
<path d="M16.9067 19.2914C15.241 17.2952 13.6245 15.3572 12.0124 13.4236C11.9812 13.4459 11.9544 13.4683 11.9231 13.4906C12.9145 15.8707 14.473 17.8892 16.1163 19.8495C16.0895 19.8942 16.0672 19.9344 16.0404 19.979C15.7099 19.9344 15.3705 19.9299 15.049 19.8451C13.495 19.4343 12.325 18.4608 11.3739 17.2149C9.80645 15.1607 9.37329 12.8386 9.86897 10.329C9.97167 9.81097 10.0387 9.77079 10.5388 9.92262C13.9058 10.9408 16.0984 13.1155 16.9603 16.554C17.1835 17.4426 17.188 18.3447 16.9067 19.2914Z" fill="#D97E59"/>
<path d="M25.2618 25.284C27.4767 25.1812 29.5487 25.3822 31.6207 25.6189C31.2992 25.3241 30.7455 25.0919 29.7139 24.8731C29.0218 24.7258 28.3207 24.6052 27.6196 24.5159C26.9185 24.4266 26.213 24.3953 25.3868 24.3283C25.5878 24.1676 25.7128 24.0336 25.8691 23.9488C28.0304 22.7788 30.1694 22.8547 32.2638 24.105C33.0765 24.5918 33.7508 25.2527 34.2911 26.0386C34.5635 26.4361 34.5501 26.5209 34.1482 26.7263C31.5984 28.0258 28.0885 27.941 25.6771 25.7662C25.5521 25.6501 25.4493 25.5117 25.2573 25.2884L25.2618 25.284Z" fill="#3A96AF"/>
<path d="M8.14067 25.5834C10.2216 25.4718 12.2936 25.1726 14.4058 25.2976C13.5083 27.5483 7.58694 28.3119 5.28271 26.4631C6.16243 24.8689 7.51549 23.882 9.24366 23.3774C11.0835 22.8371 12.7804 23.1363 14.3299 24.2929C12.2088 24.4626 10.101 24.6322 8.14067 25.5879V25.5834Z" fill="#3A96AF"/>
<path d="M15.3258 32.4917C15.0936 32.7194 14.8926 32.9829 14.6336 33.1749C12.3071 34.8718 9.70813 35.5148 6.86357 35.0594C5.55069 34.8495 4.58167 34.1439 4.06813 32.8802C4.01008 32.7328 3.96542 32.581 3.89844 32.3711H15.2633L15.3258 32.4917Z" fill="#D97E59"/>
<path d="M24.5605 32.3662H35.9031C35.6664 33.4469 35.1305 34.2239 34.157 34.666C33.2505 35.0768 32.286 35.1795 31.308 35.1616C29.3521 35.1304 27.5301 34.6347 25.8645 33.5942C25.3688 33.2816 24.8955 32.9333 24.565 32.3662H24.5605Z" fill="#D97E59"/>
<path d="M5.14404 35.4478C8.34138 36.6446 11.3556 36.1757 14.2761 34.5859C14.3074 34.6797 14.3386 34.7244 14.3297 34.7646C14.2091 35.6085 14.2359 36.4436 14.4056 37.2787C14.4503 37.493 14.3922 37.6225 14.1913 37.7118C12.1684 38.5692 10.1008 39.0068 7.92609 38.3817C6.43459 37.953 5.69777 36.7919 5.14851 35.4523L5.14404 35.4478Z" fill="#3A96AF"/>
<path d="M25.6194 34.5859C27.0082 35.4121 28.4907 35.881 30.0671 36.0328C31.6211 36.1846 33.1662 36.1132 34.7113 35.4567C34.6487 35.6443 34.622 35.7604 34.5684 35.8675C33.6753 37.7074 32.215 38.6451 30.1564 38.6496C28.6515 38.6496 27.2136 38.3504 25.8248 37.7788C25.5033 37.6448 25.3917 37.493 25.4408 37.1179C25.5435 36.3052 25.5613 35.4835 25.6194 34.5859Z" fill="#3A96AF"/>
<path d="M31.0806 15.1696C31.1431 14.6561 31.1743 14.1381 31.2771 13.6335C31.7191 11.4721 33.7152 9.45816 35.7605 9.07859C36.2695 8.98481 36.2785 8.99374 36.3589 9.50728C36.7384 11.9678 35.113 14.8168 32.7953 15.7189C32.4961 15.835 32.1746 15.8841 31.8263 15.9109C32.7685 14.3881 33.8805 13.0038 34.6039 11.3739C33.2821 12.4813 32.2997 13.8835 31.2458 15.2143C31.1922 15.2009 31.1342 15.183 31.0806 15.1696Z" fill="#D97E59"/>
<path d="M3.60322 9.04736C6.05034 9.14561 8.86811 11.9589 8.65376 15.2143C7.48378 13.8523 6.51476 12.3921 5.14383 11.2846C5.92977 12.919 7.05063 14.348 8.08217 15.8886C5.48322 15.7502 2.70117 12.3072 3.59875 9.04736H3.60322Z" fill="#D97E59"/>
<path d="M25.8467 9.75714C26.8068 8.31477 27.8696 6.97957 28.6064 5.43449C27.2936 6.50622 26.3379 7.88608 25.2975 9.23914C24.6634 7.10907 27.1105 3.53216 29.8211 3.53663C30.9375 5.61311 28.3698 9.70355 25.8467 9.75714Z" fill="#D97E59"/>
<path d="M11.3467 5.55088C12.0746 7.01558 13.0794 8.31506 13.9278 9.70831C13.901 9.74404 13.8698 9.77976 13.843 9.81549C13.5393 9.71278 13.2178 9.64133 12.932 9.5029C11.1101 8.63658 10.1455 7.14062 9.87756 5.17577C9.81951 4.75601 9.85077 4.31839 9.87756 3.89416C9.90882 3.48333 9.9758 3.44314 10.3822 3.53245C12.4229 3.97454 13.7001 5.26509 14.4012 7.18081C14.6244 7.80152 14.7004 8.44903 14.5798 9.2171C14.0395 8.50708 13.575 7.85511 13.066 7.23886C12.5569 6.62708 11.9942 6.05102 11.4584 5.46157C11.4226 5.49283 11.3825 5.51962 11.3467 5.55088Z" fill="#D97E59"/>
<path d="M19.9169 19.211C21.136 19.211 22.1452 20.2023 22.1586 21.3946C22.172 22.5959 21.1226 23.6274 19.9035 23.6185C18.6398 23.6095 17.6752 22.636 17.6841 21.3812C17.6975 20.1577 18.6755 19.2065 19.9169 19.211Z" fill="#3A96AF"/>
<path d="M7.67578 39.2118C10.1363 39.8995 12.4227 39.4083 14.6554 38.5107C15.1065 39.3011 15.5262 40.038 15.9996 40.8641C15.2762 41.0829 14.5974 41.333 13.8963 41.4848C13.3068 41.6143 12.6906 41.6724 12.0833 41.6813C10.2613 41.717 8.93953 40.7614 7.80082 39.4619C7.76063 39.4173 7.74276 39.3503 7.67578 39.2074V39.2118Z" fill="#3A96AF"/>
<path d="M32.0942 39.2791C31.0537 40.5116 29.9373 41.5788 28.2181 41.6503C26.9141 41.7039 25.6549 41.5163 24.4402 41.0385C24.275 40.9715 24.1142 40.8911 23.9312 40.8063C24.3286 40.0337 24.7126 39.2969 25.0609 38.6182C26.2532 38.904 27.4054 39.2299 28.5798 39.4532C29.7498 39.672 30.9287 39.5827 32.0987 39.2791H32.0942Z" fill="#3A96AF"/>
<path d="M17.4874 41.1188C18.3403 40.4266 19.1084 39.8104 19.8898 39.1763C20.6713 39.7881 21.4796 40.4222 22.395 41.1411C22.136 41.3555 21.8993 41.5564 21.6582 41.7484C21.4885 41.8824 21.3188 42.0119 21.1357 42.1235C19.7202 42.9899 20.064 42.9765 18.6752 42.0923C18.251 41.8243 17.8893 41.4537 17.4829 41.1188H17.4874Z" fill="#3A96AF"/>
<path d="M21.7469 36.2871C22.5016 36.8274 23.2831 37.3767 24.0467 37.9438C24.1315 38.0064 24.203 38.2296 24.1583 38.3145C23.8413 38.9263 23.5064 39.5246 23.1402 40.1096C23.0911 40.19 22.8321 40.2213 22.7249 40.1721C21.9479 39.7881 21.2959 39.2344 20.7065 38.6047C20.5814 38.4752 20.5457 38.3457 20.6573 38.1671C21.0324 37.5509 21.3852 36.9257 21.7514 36.2916L21.7469 36.2871Z" fill="#3A96AF"/>
<path d="M21.1714 43.2715C21.8457 42.7401 22.4843 42.2221 23.1452 41.7309C23.2479 41.655 23.4533 41.655 23.5917 41.6952C24.2705 41.8961 24.9269 42.1685 25.6146 42.3248C26.2978 42.4811 27.0034 42.5347 27.6822 42.6285C25.954 44.0441 22.8996 44.1557 21.1714 43.2671V43.2715Z" fill="#D97E59"/>
<path d="M18.0858 36.354C18.4788 37.0283 18.8762 37.7071 19.3004 38.4305C18.6797 39.136 17.9742 39.7657 17.1034 40.1899C17.0051 40.239 16.7551 40.1721 16.6925 40.0783C16.3308 39.5335 15.9959 38.9663 15.6655 38.3992C15.5672 38.2295 15.5806 38.0688 15.7816 37.9348C16.5452 37.4213 17.3043 36.8943 18.0858 36.354Z" fill="#3A96AF"/>
<path d="M18.6349 43.3206C16.3574 44.1244 14.2318 43.9681 12.1196 42.682C12.7002 42.5971 13.2048 42.5659 13.6826 42.4498C14.531 42.2399 15.3616 41.9809 16.2011 41.7308C16.411 41.6683 16.5896 41.579 16.7951 41.7576C17.3756 42.2667 17.9695 42.7579 18.6349 43.3161V43.3206Z" fill="#D97E59"/>
<path d="M19.9118 34.126C20.2511 34.5725 20.5637 34.97 20.8585 35.3808C20.9165 35.4656 20.9567 35.6085 20.9254 35.6979C20.6932 36.3989 20.4298 37.0822 19.9028 37.7163C19.5188 37.2697 19.3223 36.7696 19.0722 36.2962C18.8132 35.8095 18.8445 35.4121 19.2375 35.0146C19.4831 34.7646 19.6706 34.452 19.9118 34.126Z" fill="#3A96AF"/>
</svg>
