<svg width="24" height="24" viewBox="0 0 24 24" fill="none" xmlns="http://www.w3.org/2000/svg">
<path d="M20.2112 7.82L12.5112 12.28C12.2012 12.46 11.8112 12.46 11.4912 12.28L3.79119 7.82C3.24119 7.5 3.10119 6.75 3.52119 6.28C3.81119 5.95 4.14119 5.68 4.49119 5.49L9.91119 2.49C11.0712 1.84 12.9512 1.84 14.1112 2.49L19.5312 5.49C19.8812 5.68 20.2112 5.96 20.5012 6.28C20.9012 6.75 20.7612 7.5 20.2112 7.82Z" fill="#3A96AF"/>
<path d="M11.431 14.14V20.96C11.431 21.72 10.661 22.22 9.98096 21.89C7.92096 20.88 4.45096 18.99 4.45096 18.99C3.23096 18.3 2.23096 16.56 2.23096 15.13V9.97C2.23096 9.18 3.06096 8.68 3.74096 9.07L10.931 13.24C11.231 13.43 11.431 13.77 11.431 14.14Z" fill="#3A96AF"/>
<path d="M12.5708 14.14V20.96C12.5708 21.72 13.3408 22.22 14.0208 21.89C16.0808 20.88 19.5508 18.99 19.5508 18.99C20.7708 18.3 21.7708 16.56 21.7708 15.13V9.97C21.7708 9.18 20.9408 8.68 20.2608 9.07L13.0708 13.24C12.7708 13.43 12.5708 13.77 12.5708 14.14Z" fill="#3A96AF"/>
</svg>
