<svg width="35" height="34" viewBox="0 0 35 34" fill="none" xmlns="http://www.w3.org/2000/svg">
<path d="M30.5025 9.88865C29.2983 8.55698 27.3008 7.89115 24.3683 7.89115H24.0283V7.83448C24.0283 5.45448 24.0283 2.50781 18.7016 2.50781H16.5483C11.2216 2.50781 11.2216 5.45448 11.2216 7.83448V7.89115H10.8816C7.94914 7.89115 5.93747 8.55698 4.74747 9.88865C3.34497 11.4611 3.38747 13.5436 3.52914 14.9745L3.5433 15.0736L3.64989 16.3171C3.66308 16.4711 3.74666 16.6103 3.87632 16.6943C4.30273 16.9706 4.76224 17.2667 5.2008 17.5103C5.39914 17.6378 5.61164 17.7511 5.82414 17.8645C7.42497 18.7428 9.13914 19.437 10.8958 19.9186C10.9383 23.5878 13.9416 26.5628 17.625 26.5628C21.3366 26.5628 24.3541 23.5453 24.3541 19.8336V19.777C26.1391 19.2386 27.8533 18.4878 29.4541 17.5528C29.5391 17.5103 29.5958 17.4678 29.6666 17.4253C30.2526 17.1068 30.8615 16.6853 31.4109 16.2945C31.5271 16.2119 31.6021 16.0834 31.6175 15.9417L31.7208 14.9886C31.735 14.9036 31.735 14.8328 31.7491 14.7336C31.8625 13.317 31.8341 11.362 30.5025 9.88865ZM13.2475 7.83448C13.2475 5.42615 13.2475 4.51948 16.5483 4.51948H18.7016C22.0025 4.51948 22.0025 5.42615 22.0025 7.83448V7.89115H13.2475V7.83448ZM17.625 24.4378C15.2875 24.4378 13.3466 22.6811 13.0633 20.4145C13.035 20.2303 13.0208 20.032 13.0208 19.8336C13.0208 17.2978 15.0891 15.2295 17.625 15.2295C20.1608 15.2295 22.2291 17.2978 22.2291 19.8336C22.2291 20.0036 22.215 20.1595 22.2008 20.3153V20.3295C21.9458 22.6386 19.9908 24.4378 17.625 24.4378Z" fill="#3A96AF"/>
<path d="M16.8174 22.7095C16.5482 22.7095 16.2791 22.6103 16.0666 22.3978L14.6641 21.0095C14.2532 20.5987 14.2532 19.9187 14.6641 19.5078C15.0749 19.097 15.7549 19.097 16.1657 19.5078L16.8457 20.1878L19.1266 18.0912C19.5516 17.6945 20.2316 17.7228 20.6282 18.1478C21.0249 18.5728 20.9966 19.2528 20.5716 19.6495L17.5541 22.4403C17.3274 22.6103 17.0724 22.7095 16.8174 22.7095Z" fill="#3A96AF"/>
<path d="M30.434 19.4524C30.7864 19.2566 31.2435 19.5403 31.2068 19.9417L30.7032 25.4449C30.4057 28.2782 29.244 31.1682 23.0107 31.1682H12.2157C5.98238 31.1682 4.82071 28.2782 4.53738 25.459L4.04684 20.2067C4.00903 19.8019 4.44722 19.5313 4.80654 19.7215C5.91154 20.3307 7.05904 20.869 8.23488 21.294C8.67404 21.4499 8.98571 21.8182 9.11321 22.2716C10.1757 25.9549 13.604 28.6891 17.6274 28.6891C21.7215 28.6891 25.1782 25.8982 26.184 22.0732C26.2974 21.6199 26.609 21.2515 27.0482 21.0815C28.2382 20.614 29.3715 20.0615 30.434 19.4524Z" fill="#3A96AF"/>
</svg>
