<svg width="35" height="34" viewBox="0 0 35 34" fill="none" xmlns="http://www.w3.org/2000/svg">
<path d="M16.1427 22.4971C15.7886 22.4971 15.4344 22.3129 15.2361 21.9871C14.9386 21.4912 15.0944 20.8254 15.6044 20.5279L16.8652 19.7771V18.2471C16.8652 17.6662 17.3469 17.1846 17.9277 17.1846C18.5086 17.1846 18.9902 17.6662 18.9902 18.2471V20.3721C18.9902 20.7404 18.7919 21.0946 18.4802 21.2787L16.7094 22.3412C16.5111 22.4404 16.3269 22.4971 16.1427 22.4971Z" fill="#3A96AF"/>
<path d="M30.2525 9.88865C29.0483 8.55698 27.0508 7.89115 24.1183 7.89115H23.7783V7.83448C23.7783 5.45448 23.7783 2.50781 18.4516 2.50781H16.2983C10.9716 2.50781 10.9716 5.45448 10.9716 7.83448V7.89115H10.6316C7.69914 7.89115 5.68747 8.55698 4.49747 9.88865C3.09497 11.4611 3.13747 13.5436 3.27914 14.9745L3.2933 15.0736L3.39989 16.3171C3.41308 16.4711 3.49666 16.6103 3.62632 16.6943C4.05273 16.9706 4.51224 17.2667 4.9508 17.5103C5.14914 17.6378 5.36164 17.7511 5.57414 17.8645C7.17497 18.7428 8.88914 19.437 10.6458 19.9186C10.6883 23.5878 13.6916 26.5628 17.375 26.5628C21.0866 26.5628 24.1041 23.5453 24.1041 19.8336V19.777C25.8891 19.2386 27.6033 18.4878 29.2041 17.5528C29.2891 17.5103 29.3458 17.4678 29.4166 17.4253C30.0029 17.1067 30.612 16.685 31.1616 16.2941C31.2773 16.2117 31.3523 16.0838 31.368 15.9426L31.4 15.6545L31.4708 14.9886C31.485 14.9036 31.485 14.8328 31.4991 14.7336C31.6125 13.317 31.5841 11.362 30.2525 9.88865ZM12.9975 7.83448C12.9975 5.42615 12.9975 4.51948 16.2983 4.51948H18.4516C21.7525 4.51948 21.7525 5.42615 21.7525 7.83448V7.89115H12.9975V7.83448ZM17.375 24.4378C15.0375 24.4378 13.0966 22.6811 12.8133 20.4145C12.785 20.2303 12.7708 20.032 12.7708 19.8336C12.7708 17.2978 14.8391 15.2295 17.375 15.2295C19.9108 15.2295 21.9791 17.2978 21.9791 19.8336C21.9791 20.0036 21.965 20.1595 21.9508 20.3153V20.3295C21.6958 22.6386 19.7408 24.4378 17.375 24.4378Z" fill="#3A96AF"/>
<path d="M30.1816 19.4504C30.534 19.2547 30.9911 19.5383 30.9543 19.9397L30.4508 25.4429C30.1533 28.2763 28.9916 31.1663 22.7583 31.1663H11.9633C5.72993 31.1663 4.56827 28.2763 4.28494 25.4571L3.79439 20.2047C3.75659 19.7999 4.19478 19.5294 4.5541 19.7196V19.7196C5.6591 20.3288 6.8066 20.8671 7.98243 21.2921C8.4216 21.4479 8.73327 21.8163 8.86077 22.2696C9.92327 25.9529 13.3516 28.6871 17.3749 28.6871C21.4691 28.6871 24.9258 25.8963 25.9316 22.0713C26.0449 21.6179 26.3566 21.2496 26.7958 21.0796C27.9858 20.6121 29.1191 20.0596 30.1816 19.4504V19.4504Z" fill="#3A96AF"/>
</svg>
