<svg width="24" height="24" viewBox="0 0 24 24" fill="none" xmlns="http://www.w3.org/2000/svg">
<path d="M21.09 6.97999C20.24 6.03999 18.83 5.56999 16.76 5.56999H16.52V5.52999C16.52 3.84999 16.52 1.76999 12.76 1.76999H11.24C7.48004 1.76999 7.48004 3.84999 7.48004 5.52999V5.56999H7.24004C5.17004 5.56999 3.75004 6.03999 2.91004 6.97999C1.92004 8.08999 1.95004 9.55999 2.05004 10.57L2.06004 10.64L2.12912 11.446C2.14232 11.5999 2.22586 11.7392 2.35558 11.8231C2.63927 12.0067 2.94109 12.1995 3.23004 12.36C3.37004 12.45 3.52004 12.53 3.67004 12.61C4.80004 13.23 6.01004 13.72 7.25004 14.06C7.28004 16.65 9.40004 18.75 12 18.75C14.62 18.75 16.75 16.62 16.75 14V13.96C18.01 13.58 19.22 13.05 20.35 12.39C20.41 12.36 20.45 12.33 20.5 12.3C20.8947 12.0855 21.304 11.8048 21.6776 11.5399C21.7938 11.4575 21.8688 11.329 21.8842 11.1872L21.95 10.58C21.96 10.52 21.96 10.47 21.97 10.4C22.05 9.39999 22.03 8.01999 21.09 6.97999ZM8.91004 5.52999C8.91004 3.82999 8.91004 3.18999 11.24 3.18999H12.76C15.09 3.18999 15.09 3.82999 15.09 5.52999V5.56999H8.91004V5.52999ZM12 17.25C10.35 17.25 8.98004 16.01 8.78004 14.41C8.76004 14.28 8.75004 14.14 8.75004 14C8.75004 12.21 10.21 10.75 12 10.75C13.79 10.75 15.25 12.21 15.25 14C15.25 14.12 15.24 14.23 15.23 14.34V14.35C15.05 15.98 13.67 17.25 12 17.25Z" fill="#3A96AF"/>
<path d="M11.4299 16.03C11.2399 16.03 11.0499 15.96 10.8999 15.81L9.90988 14.83C9.61988 14.54 9.61988 14.06 9.90988 13.77C10.1999 13.48 10.6799 13.48 10.9699 13.77L11.4499 14.25L13.0599 12.77C13.3599 12.49 13.8399 12.51 14.1199 12.81C14.3999 13.11 14.3799 13.59 14.0799 13.87L11.9499 15.84C11.7899 15.96 11.6099 16.03 11.4299 16.03Z" fill="#3A96AF"/>
<path d="M21.0416 13.7311C21.2903 13.5929 21.6129 13.7931 21.587 14.0765L21.2316 17.9611C21.0216 19.9611 20.2016 22.0011 15.8016 22.0011H8.18156C3.78156 22.0011 2.96156 19.9611 2.76156 17.9711L2.41569 14.2678C2.38884 13.9802 2.69635 13.786 2.95156 13.9211C3.73156 14.3511 4.54156 14.7311 5.37156 15.0311C5.68156 15.1411 5.90156 15.4011 5.99156 15.7211C6.74156 18.3211 9.16156 20.2511 12.0016 20.2511C14.8916 20.2511 17.3316 18.2811 18.0416 15.5811C18.1216 15.2611 18.3416 15.0011 18.6516 14.8811C19.4916 14.5511 20.2916 14.1611 21.0416 13.7311Z" fill="#3A96AF"/>
</svg>
