<svg width="14" height="14" viewBox="0 0 14 14" fill="none" xmlns="http://www.w3.org/2000/svg">
<g clip-path="url(#clip0_926_18211)">
<path fill-rule="evenodd" clip-rule="evenodd" d="M6.99999 7.82525L10.2999 11.1252C10.4099 11.2314 10.5573 11.2902 10.7102 11.2889C10.8632 11.2876 11.0095 11.2262 11.1176 11.1181C11.2258 11.0099 11.2871 10.8636 11.2885 10.7106C11.2898 10.5577 11.231 10.4103 11.1247 10.3003L7.82483 7.00041L11.1247 3.7005C11.231 3.59048 11.2898 3.44313 11.2885 3.29018C11.2871 3.13723 11.2258 2.99092 11.1176 2.88277C11.0095 2.77461 10.8632 2.71327 10.7102 2.71194C10.5573 2.71061 10.4099 2.7694 10.2999 2.87566L6.99999 6.17558L3.70008 2.87566C3.58956 2.77203 3.44307 2.71546 3.29159 2.71792C3.1401 2.72038 2.99552 2.78168 2.88843 2.88884C2.78134 2.99601 2.72015 3.14063 2.71779 3.29212C2.71544 3.4436 2.77212 3.59006 2.87583 3.7005L6.17516 7.00041L2.87524 10.3003C2.81953 10.3541 2.77509 10.4185 2.74452 10.4897C2.71395 10.5608 2.69785 10.6374 2.69718 10.7148C2.69651 10.7923 2.71127 10.8691 2.7406 10.9408C2.76993 11.0125 2.81324 11.0776 2.86801 11.1324C2.92278 11.1872 2.98791 11.2305 3.0596 11.2598C3.13129 11.2891 3.20811 11.3039 3.28556 11.3032C3.36302 11.3026 3.43956 11.2865 3.51073 11.2559C3.5819 11.2253 3.64627 11.1809 3.70008 11.1252L6.99999 7.82525Z" fill="#3A96AF"/>
</g>
<defs>
<clipPath id="clip0_926_18211">
<rect width="14" height="14" fill="white"/>
</clipPath>
</defs>
</svg>
