<svg width="24" height="24" viewBox="0 0 24 24" fill="none" xmlns="http://www.w3.org/2000/svg">
<g clip-path="url(#clip0_1146_17607)">
<path fill-rule="evenodd" clip-rule="evenodd" d="M12.0001 13.4141L17.6571 19.0711C17.8457 19.2533 18.0983 19.3541 18.3605 19.3518C18.6227 19.3495 18.8735 19.2444 19.0589 19.059C19.2443 18.8736 19.3495 18.6227 19.3517 18.3606C19.354 18.0984 19.2532 17.8458 19.0711 17.6571L13.4141 12.0001L19.0711 6.34315C19.2532 6.15455 19.354 5.90194 19.3517 5.63975C19.3495 5.37755 19.2443 5.12674 19.0589 4.94133C18.8735 4.75592 18.6227 4.65075 18.3605 4.64848C18.0983 4.6462 17.8457 4.74699 17.6571 4.92915L12.0001 10.5861L6.34307 4.92915C6.15362 4.75149 5.90248 4.65451 5.6428 4.65873C5.38311 4.66295 5.13526 4.76803 4.95168 4.95174C4.76809 5.13546 4.66319 5.38339 4.65915 5.64307C4.65512 5.90276 4.75228 6.15382 4.93007 6.34315L10.5861 12.0001L4.92907 17.6571C4.83356 17.7494 4.75738 17.8597 4.70497 17.9817C4.65256 18.1037 4.62497 18.235 4.62382 18.3677C4.62266 18.5005 4.64796 18.6322 4.69825 18.7551C4.74853 18.878 4.82278 18.9897 4.91667 19.0835C5.01057 19.1774 5.12222 19.2517 5.24511 19.302C5.36801 19.3523 5.49969 19.3776 5.63247 19.3764C5.76525 19.3752 5.89647 19.3477 6.01847 19.2953C6.14048 19.2428 6.25082 19.1667 6.34307 19.0711L12.0001 13.4141Z" fill="#09244B"/>
</g>
<defs>
<clipPath id="clip0_1146_17607">
<rect width="24" height="24" fill="white"/>
</clipPath>
</defs>
</svg>
