<svg width="20" height="20" viewBox="0 0 20 20" fill="none" xmlns="http://www.w3.org/2000/svg">
<g clip-path="url(#clip0_1145_12951)">
<path d="M16.6667 12.5003C16.8877 12.5003 17.0996 12.5881 17.2559 12.7444C17.4122 12.9007 17.5 13.1126 17.5 13.3337V16.667C17.5 17.109 17.3244 17.5329 17.0118 17.8455C16.6993 18.1581 16.2754 18.3337 15.8333 18.3337H4.16667C3.72464 18.3337 3.30072 18.1581 2.98816 17.8455C2.67559 17.5329 2.5 17.109 2.5 16.667V13.3337C2.5 13.1126 2.5878 12.9007 2.74408 12.7444C2.90036 12.5881 3.11232 12.5003 3.33333 12.5003C3.55435 12.5003 3.76631 12.5881 3.92259 12.7444C4.07887 12.9007 4.16667 13.1126 4.16667 13.3337V16.667H15.8333V13.3337C15.8333 13.1126 15.9211 12.9007 16.0774 12.7444C16.2337 12.5881 16.4457 12.5003 16.6667 12.5003ZM10 1.66699C10.221 1.66699 10.433 1.75479 10.5893 1.91107C10.7455 2.06735 10.8333 2.27931 10.8333 2.50033V11.0362L12.9467 8.92283C13.0235 8.84323 13.1155 8.77975 13.2172 8.73607C13.3188 8.6924 13.4282 8.66941 13.5388 8.66845C13.6495 8.66749 13.7592 8.68857 13.8616 8.73047C13.964 8.77237 14.0571 8.83425 14.1353 8.9125C14.2136 8.99074 14.2755 9.08378 14.3174 9.1862C14.3593 9.28861 14.3803 9.39834 14.3794 9.50899C14.3784 9.61964 14.3554 9.72899 14.3118 9.83066C14.2681 9.93233 14.2046 10.0243 14.125 10.1012L10.7367 13.4895C10.6399 13.5862 10.5251 13.663 10.3987 13.7154C10.2723 13.7677 10.1368 13.7947 10 13.7947C9.86318 13.7947 9.72771 13.7677 9.60131 13.7154C9.47491 13.663 9.36006 13.5862 9.26333 13.4895L5.875 10.1012C5.79541 10.0243 5.73192 9.93233 5.68825 9.83066C5.64457 9.72899 5.62159 9.61964 5.62062 9.50899C5.61966 9.39834 5.64075 9.28861 5.68265 9.1862C5.72455 9.08378 5.78643 8.99074 5.86467 8.9125C5.94291 8.83425 6.03596 8.77237 6.13837 8.73047C6.24079 8.68857 6.35052 8.66749 6.46117 8.66845C6.57182 8.66941 6.68117 8.6924 6.78284 8.73607C6.88451 8.77975 6.97646 8.84323 7.05333 8.92283L9.16667 11.0362V2.50033C9.16667 2.27931 9.25446 2.06735 9.41074 1.91107C9.56702 1.75479 9.77899 1.66699 10 1.66699Z" fill="#3A96AF"/>
</g>
<defs>
<clipPath id="clip0_1145_12951">
<rect width="20" height="20" fill="white"/>
</clipPath>
</defs>
</svg>
