<svg width="35" height="34" viewBox="0 0 35 34" fill="none" xmlns="http://www.w3.org/2000/svg">
<path d="M21.9123 5.59596V10.9793H19.7873V5.59596C19.7873 5.21346 19.4473 5.0293 19.2207 5.0293C19.1498 5.0293 19.079 5.04346 19.0082 5.0718L7.774 9.30763C7.02317 9.59096 6.5415 10.2993 6.5415 11.1068V12.056C5.25234 13.0193 4.4165 14.5635 4.4165 16.306V11.1068C4.4165 9.42096 5.45067 7.9193 7.02317 7.3243L18.2715 3.0743C18.5832 2.96096 18.909 2.9043 19.2207 2.9043C20.6373 2.9043 21.9123 4.0518 21.9123 5.59596Z" fill="#3A96AF"/>
<path d="M31.3331 20.5413V21.958C31.3331 22.3405 31.0356 22.6522 30.639 22.6663H28.5706C27.8198 22.6663 27.1398 22.1138 27.0831 21.3772C27.0406 20.938 27.2106 20.5272 27.494 20.2438C27.749 19.9747 28.1031 19.833 28.4856 19.833H30.6248C31.0356 19.8472 31.3331 20.1588 31.3331 20.5413Z" fill="#3A96AF"/>
<path d="M7.95817 21.25C6.6265 21.25 5.394 21.7175 4.4165 22.4967C3.11317 23.5308 2.2915 25.1317 2.2915 26.9167C2.2915 27.9792 2.589 28.985 3.11317 29.835C4.09067 31.4783 5.88984 32.5833 7.95817 32.5833C9.389 32.5833 10.6923 32.0592 11.684 31.1667C12.1232 30.7983 12.5057 30.345 12.8032 29.835C13.3273 28.985 13.6248 27.9792 13.6248 26.9167C13.6248 23.7858 11.089 21.25 7.95817 21.25ZM5.71984 26.1517C5.309 25.7408 5.309 25.0608 5.71984 24.65C6.14484 24.2392 6.81067 24.2392 7.23567 24.65L7.97234 25.4008L8.68067 24.6783C9.10567 24.2675 9.7715 24.2675 10.1965 24.6783C10.6073 25.1033 10.6073 25.7692 10.1965 26.1942L9.474 26.9025L10.2248 27.6392C10.6357 28.0642 10.6357 28.73 10.2248 29.155C10.0123 29.3533 9.74317 29.4525 9.474 29.4525C9.20484 29.4525 8.93567 29.3533 8.72317 29.155L7.97234 28.4042L7.19317 29.1833C6.98067 29.3958 6.7115 29.495 6.44234 29.495C6.17317 29.495 5.904 29.3958 5.6915 29.1833C5.28067 28.7725 5.28067 28.0925 5.6915 27.6817L6.47067 26.9025L5.71984 26.1517Z" fill="#3A96AF"/>
<path d="M28.4715 18.3462H29.9165C30.6957 18.3462 31.3332 17.7087 31.3332 16.9295V16.3062C31.3332 13.3737 28.939 10.9795 26.0065 10.9795H9.74317C8.539 10.9795 7.434 11.3762 6.5415 12.0562C5.25234 13.0195 4.4165 14.5637 4.4165 16.3062V18.8278C4.4165 19.3662 4.98317 19.7062 5.49317 19.5362C6.2865 19.267 7.12234 19.1253 7.95817 19.1253C12.2507 19.1253 15.7498 22.6245 15.7498 26.917C15.7498 27.937 15.4807 29.0562 15.0557 30.0478C14.829 30.5578 15.1832 31.167 15.7357 31.167H26.0065C28.939 31.167 31.3332 28.7728 31.3332 25.8403V25.5712C31.3332 24.792 30.6957 24.1545 29.9165 24.1545H28.684C27.324 24.1545 26.0207 23.3187 25.6665 22.0012C25.3832 20.9245 25.7232 19.8762 26.4315 19.1962C26.9557 18.6578 27.6782 18.3462 28.4715 18.3462ZM20.7082 18.0628H13.6248C13.044 18.0628 12.5623 17.5812 12.5623 17.0003C12.5623 16.4195 13.044 15.9378 13.6248 15.9378H20.7082C21.289 15.9378 21.7707 16.4195 21.7707 17.0003C21.7707 17.5812 21.289 18.0628 20.7082 18.0628Z" fill="#3A96AF"/>
</svg>
