<svg width="45" height="44" viewBox="0 0 45 44" fill="none" xmlns="http://www.w3.org/2000/svg">
<rect x="0.5" width="44" height="44" rx="22" fill="#F6F7F9"/>
<path d="M17.26 32H27.74C30.5 32 31.6 30.31 31.73 28.25L32.25 19.99C32.39 17.83 30.67 16 28.5 16C27.89 16 27.33 15.65 27.05 15.11L26.33 13.66C25.87 12.75 24.67 12 23.65 12H21.36C20.33 12 19.13 12.75 18.67 13.66L17.95 15.11C17.67 15.65 17.11 16 16.5 16C14.33 16 12.61 17.83 12.75 19.99L13.27 28.25C13.39 30.31 14.5 32 17.26 32Z" stroke="#252525" stroke-width="1.5" stroke-linecap="round" stroke-linejoin="round"/>
<path d="M21 18H24" stroke="#252525" stroke-width="1.5" stroke-linecap="round" stroke-linejoin="round"/>
<path d="M22.5 28C24.29 28 25.75 26.54 25.75 24.75C25.75 22.96 24.29 21.5 22.5 21.5C20.71 21.5 19.25 22.96 19.25 24.75C19.25 26.54 20.71 28 22.5 28Z" stroke="#252525" stroke-width="1.5" stroke-linecap="round" stroke-linejoin="round"/>
</svg>
