<svg width="25" height="24" viewBox="0 0 25 24" fill="none" xmlns="http://www.w3.org/2000/svg">
<path d="M18.2501 7.16C18.1901 7.15 18.1201 7.15 18.0601 7.16C16.6801 7.11 15.5801 5.98 15.5801 4.58C15.5801 3.15 16.7301 2 18.1601 2C19.5901 2 20.7401 3.16 20.7401 4.58C20.7301 5.98 19.6301 7.11 18.2501 7.16Z" stroke="#3A96AF" stroke-width="1.5" stroke-linecap="round" stroke-linejoin="round"/>
<path d="M17.2202 14.4402C18.5902 14.6702 20.1002 14.4302 21.1602 13.7202C22.5702 12.7802 22.5702 11.2402 21.1602 10.3002C20.0902 9.59016 18.5602 9.35016 17.1902 9.59016" stroke="#3A96AF" stroke-width="1.5" stroke-linecap="round" stroke-linejoin="round"/>
<path d="M6.21998 7.16C6.27998 7.15 6.34998 7.15 6.40998 7.16C7.78998 7.11 8.88998 5.98 8.88998 4.58C8.88998 3.15 7.73998 2 6.30998 2C4.87998 2 3.72998 3.16 3.72998 4.58C3.73998 5.98 4.83998 7.11 6.21998 7.16Z" stroke="#3A96AF" stroke-width="1.5" stroke-linecap="round" stroke-linejoin="round"/>
<path d="M7.24994 14.4402C5.87994 14.6702 4.36994 14.4302 3.30994 13.7202C1.89994 12.7802 1.89994 11.2402 3.30994 10.3002C4.37994 9.59016 5.90994 9.35016 7.27994 9.59016" stroke="#3A96AF" stroke-width="1.5" stroke-linecap="round" stroke-linejoin="round"/>
<path d="M12.2501 14.6302C12.1901 14.6202 12.1201 14.6202 12.0601 14.6302C10.6801 14.5802 9.58008 13.4502 9.58008 12.0502C9.58008 10.6202 10.7301 9.47021 12.1601 9.47021C13.5901 9.47021 14.7401 10.6302 14.7401 12.0502C14.7301 13.4502 13.6301 14.5902 12.2501 14.6302Z" stroke="#3A96AF" stroke-width="1.5" stroke-linecap="round" stroke-linejoin="round"/>
<path d="M9.33997 17.7804C7.92997 18.7204 7.92997 20.2603 9.33997 21.2003C10.94 22.2703 13.56 22.2703 15.16 21.2003C16.57 20.2603 16.57 18.7204 15.16 17.7804C13.57 16.7204 10.94 16.7204 9.33997 17.7804Z" stroke="#3A96AF" stroke-width="1.5" stroke-linecap="round" stroke-linejoin="round"/>
</svg>
