<svg width="35" height="34" viewBox="0 0 35 34" fill="none" xmlns="http://www.w3.org/2000/svg">
<path d="M27.7824 9.40633C27.1732 6.33216 24.8924 4.98633 21.719 4.98633H9.2807C5.5407 4.98633 3.04736 6.85633 3.04736 11.2197V18.5155C3.04736 21.6605 4.33653 23.5022 6.46153 24.2955C6.7732 24.4088 7.1132 24.508 7.46736 24.5647C8.03403 24.6922 8.6432 24.7488 9.2807 24.7488H21.7332C25.4732 24.7488 27.9665 22.8788 27.9665 18.5155V11.2197C27.9665 10.5538 27.9099 9.95883 27.7824 9.40633ZM8.45903 16.9997C8.45903 17.5805 7.97736 18.0622 7.39653 18.0622C6.8157 18.0622 6.33403 17.5805 6.33403 16.9997V12.7497C6.33403 12.1688 6.8157 11.6872 7.39653 11.6872C7.97736 11.6872 8.45903 12.1688 8.45903 12.7497V16.9997ZM15.4999 18.6147C13.4315 18.6147 11.7599 16.943 11.7599 14.8747C11.7599 12.8063 13.4315 11.1347 15.4999 11.1347C17.5682 11.1347 19.2399 12.8063 19.2399 14.8747C19.2399 16.943 17.5682 18.6147 15.4999 18.6147ZM24.6515 16.9997C24.6515 17.5805 24.1699 18.0622 23.589 18.0622C23.0082 18.0622 22.5265 17.5805 22.5265 16.9997V12.7497C22.5265 12.1688 23.0082 11.6872 23.589 11.6872C24.1699 11.6872 24.6515 12.1688 24.6515 12.7497V16.9997Z" fill="#3A96AF"/>
<path d="M32.2168 15.4696V22.7654C32.2168 27.1287 29.7235 29.0129 25.9693 29.0129H13.531C12.4685 29.0129 11.5193 28.8571 10.6977 28.5454C10.0318 28.3046 9.45099 27.9504 8.98349 27.4971C8.72849 27.2562 8.92683 26.8737 9.28099 26.8737H21.7193C26.961 26.8737 30.0777 23.7571 30.0777 18.5296V11.2196C30.0777 10.8796 30.4602 10.6671 30.701 10.9221C31.6643 11.9421 32.2168 13.4296 32.2168 15.4696Z" fill="#3A96AF"/>
</svg>
