<svg width="22" height="22" viewBox="0 0 22 22" fill="none" xmlns="http://www.w3.org/2000/svg">
<path d="M11.0185 2.66797C7.98437 2.66797 5.51854 5.1338 5.51854 8.16797V10.8171C5.51854 11.3763 5.2802 12.2288 4.99604 12.7055L3.94187 14.4563C3.29104 15.538 3.7402 16.7388 4.93187 17.1421C8.8827 18.4621 13.1452 18.4621 17.096 17.1421C18.2052 16.7755 18.691 15.4646 18.086 14.4563L17.0319 12.7055C16.7569 12.2288 16.5185 11.3763 16.5185 10.8171V8.16797C16.5185 5.14297 14.0435 2.66797 11.0185 2.66797Z" stroke="#252525" stroke-width="1.5" stroke-miterlimit="10" stroke-linecap="round"/>
<path d="M12.7139 2.93332C12.4298 2.85082 12.1364 2.78665 11.8339 2.74999C10.9539 2.63999 10.1106 2.70415 9.32227 2.93332C9.5881 2.25499 10.2481 1.77832 11.0181 1.77832C11.7881 1.77832 12.4481 2.25499 12.7139 2.93332Z" stroke="#252525" stroke-width="1.5" stroke-miterlimit="10" stroke-linecap="round" stroke-linejoin="round"/>
<path d="M13.7686 17.4717C13.7686 18.9842 12.5311 20.2217 11.0186 20.2217C10.2669 20.2217 9.57022 19.91 9.07522 19.415C8.58022 18.92 8.26855 18.2233 8.26855 17.4717" stroke="#252525" stroke-width="1.5" stroke-miterlimit="10"/>
</svg>
