<svg width="19" height="18" viewBox="0 0 19 18" fill="none" xmlns="http://www.w3.org/2000/svg">
<path d="M7.22754 11.4523L12.1325 6.54736" stroke="#3A96AF" stroke-width="1.5" stroke-linecap="round" stroke-linejoin="round"/>
<path d="M7.535 7.77761C8.04448 7.77761 8.45748 7.36461 8.45748 6.85513C8.45748 6.34564 8.04448 5.93262 7.535 5.93262C7.02551 5.93262 6.61249 6.34564 6.61249 6.85513C6.61249 7.36461 7.02551 7.77761 7.535 7.77761Z" stroke="#3A96AF" stroke-width="1.5" stroke-linecap="round" stroke-linejoin="round"/>
<path d="M12.44 12.0676C12.9495 12.0676 13.3625 11.6546 13.3625 11.1451C13.3625 10.6357 12.9495 10.2227 12.44 10.2227C11.9305 10.2227 11.5175 10.6357 11.5175 11.1451C11.5175 11.6546 11.9305 12.0676 12.44 12.0676Z" stroke="#3A96AF" stroke-width="1.5" stroke-linecap="round" stroke-linejoin="round"/>
<path d="M9.79999 16.5C13.9421 16.5 17.3 13.1421 17.3 9C17.3 4.85786 13.9421 1.5 9.79999 1.5C5.65785 1.5 2.29999 4.85786 2.29999 9C2.29999 13.1421 5.65785 16.5 9.79999 16.5Z" stroke="#3A96AF" stroke-width="1.5" stroke-linecap="round" stroke-linejoin="round"/>
</svg>
