<svg width="18" height="18" viewBox="0 0 18 18" fill="none" xmlns="http://www.w3.org/2000/svg">
<path d="M6.42773 11.4523L11.3327 6.54736" stroke="#252525" stroke-width="1.5" stroke-linecap="round" stroke-linejoin="round"/>
<path d="M6.73501 7.77761C7.24449 7.77761 7.65749 7.36461 7.65749 6.85513C7.65749 6.34564 7.24449 5.93262 6.73501 5.93262C6.22553 5.93262 5.8125 6.34564 5.8125 6.85513C5.8125 7.36461 6.22553 7.77761 6.73501 7.77761Z" stroke="#252525" stroke-width="1.5" stroke-linecap="round" stroke-linejoin="round"/>
<path d="M11.6403 12.0676C12.1497 12.0676 12.5628 11.6546 12.5628 11.1451C12.5628 10.6357 12.1497 10.2227 11.6403 10.2227C11.1308 10.2227 10.7178 10.6357 10.7178 11.1451C10.7178 11.6546 11.1308 12.0676 11.6403 12.0676Z" stroke="#252525" stroke-width="1.5" stroke-linecap="round" stroke-linejoin="round"/>
<path d="M9 16.5C13.1421 16.5 16.5 13.1421 16.5 9C16.5 4.85786 13.1421 1.5 9 1.5C4.85786 1.5 1.5 4.85786 1.5 9C1.5 13.1421 4.85786 16.5 9 16.5Z" stroke="#252525" stroke-width="1.5" stroke-linecap="round" stroke-linejoin="round"/>
</svg>
