<svg width="19" height="18" viewBox="0 0 19 18" fill="none" xmlns="http://www.w3.org/2000/svg">
<path d="M15.8 5.28V12.72C15.8 13.86 15.695 14.67 15.425 15.2475C15.425 15.255 15.4175 15.27 15.41 15.2775C15.245 15.4875 15.0275 15.5925 14.7725 15.5925C14.375 15.5925 13.895 15.33 13.3775 14.775C12.7625 14.115 11.8175 14.1675 11.2775 14.8875L10.52 15.8925C10.22 16.2975 9.82249 16.5 9.42499 16.5C9.02749 16.5 8.62997 16.2975 8.32997 15.8925L7.565 14.88C7.0325 14.1675 6.09498 14.115 5.47998 14.7675L5.47247 14.775C4.62497 15.6825 3.875 15.8175 3.44 15.2775C3.4325 15.27 3.42499 15.255 3.42499 15.2475C3.15499 14.67 3.04999 13.86 3.04999 12.72V5.28C3.04999 4.14 3.15499 3.33 3.42499 2.7525C3.42499 2.745 3.425 2.7375 3.44 2.73C3.8675 2.1825 4.62497 2.3175 5.47247 3.225L5.47998 3.2325C6.09498 3.885 7.0325 3.8325 7.565 3.12L8.32997 2.1075C8.62997 1.7025 9.02749 1.5 9.42499 1.5C9.82249 1.5 10.22 1.7025 10.52 2.1075L11.2775 3.1125C11.8175 3.8325 12.7625 3.885 13.3775 3.225C13.895 2.67 14.375 2.4075 14.7725 2.4075C15.0275 2.4075 15.245 2.52 15.41 2.73C15.425 2.7375 15.425 2.745 15.425 2.7525C15.695 3.33 15.8 4.14 15.8 5.28Z" stroke="#3A96AF" stroke-width="1.5" stroke-linecap="round" stroke-linejoin="round"/>
<path d="M6.79999 7.6875H12.8" stroke="#3A96AF" stroke-width="1.5" stroke-linecap="round" stroke-linejoin="round"/>
<path d="M6.79999 10.3125H11.3" stroke="#3A96AF" stroke-width="1.5" stroke-linecap="round" stroke-linejoin="round"/>
</svg>
